<svg width="119" height="51" viewBox="0 0 119 51" fill="none" xmlns="http://www.w3.org/2000/svg">
<path d="M21.8907 10.6379C22.3107 10.5896 22.7975 10.6836 23.2022 10.8069C24.1179 11.0858 24.8622 11.6836 25.3038 12.5364C25.7625 13.4105 25.8505 14.4327 25.5479 15.3723C25.1636 16.5309 24.3397 17.1132 23.3106 17.6487L23.3223 21.0286C24.0578 21.2528 24.7736 21.5077 25.4414 21.8948C26.9763 22.7847 28.0267 24.2852 28.4668 25.9924C28.9321 27.7827 28.6669 29.6849 27.7305 31.2805C26.8716 32.727 25.502 33.7961 23.8623 34.2053C21.7206 34.7404 19.9043 34.1601 18.0635 33.0657C17.2498 33.9358 16.4459 34.8161 15.6524 35.7053C16.007 36.542 16.1238 37.4198 15.8887 38.3088C15.6588 39.1782 15.0497 39.9231 14.2705 40.3635C13.3974 40.8577 12.4026 40.948 11.4454 40.6741C10.4954 40.4022 9.69676 39.8132 9.23246 38.929C8.77564 38.0596 8.73699 37.0406 9.03324 36.1126C9.37036 35.0579 10.0573 34.4081 11.0225 33.926C12.0612 33.5198 12.9197 33.6536 13.9336 34.0188C14.778 33.1303 15.5737 32.1974 16.4268 31.3167C15.4893 29.4781 15.1856 27.9119 15.6729 25.886C14.6115 25.3905 13.5875 24.813 12.5254 24.3167C11.958 24.9073 11.2647 25.3124 10.4502 25.4495C9.47873 25.613 8.45386 25.348 7.65531 24.7776C6.86425 24.2044 6.34368 23.3311 6.21586 22.3626C6.08467 21.4233 6.33212 20.388 6.93363 19.6467C7.55385 18.8824 8.51645 18.4215 9.48832 18.3196C10.4434 18.2266 11.397 18.518 12.1368 19.1292C13.0823 19.9213 13.3551 20.9058 13.4698 22.0794C14.4764 22.6965 15.6289 23.1728 16.6778 23.7239C18.0425 22.1105 19.0402 21.6017 21.0293 20.9885L21.0313 17.634C20.6752 17.4915 20.3191 17.3182 20.0088 17.0901C19.2241 16.5096 18.7094 15.635 18.5821 14.6672C18.4644 13.7043 18.7359 12.7334 19.337 11.9719C19.9939 11.1479 20.8721 10.7727 21.8907 10.6379ZM26.2774 27.3245C26.075 25.0169 24.0469 23.3057 21.7383 23.4934C19.4093 23.6831 17.6799 25.7323 17.8838 28.0598C18.088 30.3883 20.1479 32.1056 22.4746 31.887C24.7807 31.6696 26.4797 29.6318 26.2774 27.3245Z" fill="white"/>
<path d="M104.916 22.084C105.602 22.0849 106.287 22.0948 106.973 22.1123L106.969 25.7373C107.498 25.3264 108.073 25.0209 108.743 24.9209C109.647 24.784 110.568 25.0176 111.298 25.5693C112.178 26.2347 112.639 27.3553 112.773 28.4258C112.943 29.7835 112.624 31.0885 111.786 32.1709C111.23 32.7075 110.562 33.0829 109.793 33.209C108.664 33.3943 107.77 32.9995 106.889 32.3428L106.885 33.1347L104.917 33.1318L104.916 22.084ZM108.442 26.8349C107.83 27.0381 107.405 27.3289 107.107 27.9179C106.776 28.5714 106.753 29.3785 107.011 30.0596C107.209 30.5811 107.578 31.0324 108.094 31.2646C108.467 31.4338 108.82 31.4391 109.222 31.415C109.861 31.1736 110.291 30.8639 110.58 30.2246C110.881 29.557 110.877 28.7519 110.591 28.0801C110.37 27.5633 109.979 27.1469 109.451 26.9424C109.121 26.815 108.79 26.7981 108.442 26.8349Z" fill="white"/>
<path d="M45.9824 22.0633C47.1893 25.7831 48.734 29.4013 49.9111 33.1316L47.6865 33.1346C47.4258 32.3381 47.1742 31.4372 46.7764 30.701C46.5164 30.5898 46.2086 30.6271 45.9307 30.6306C44.8578 30.6413 43.7846 30.6373 42.7119 30.6189C42.3751 31.4409 42.1036 32.2868 41.8369 33.1336L39.5713 33.1316C40.7545 29.4183 42.1651 25.7523 43.4424 22.0681C44.2874 22.0865 45.137 22.0667 45.9824 22.0633ZM44.7148 24.8133C44.2464 26.1448 43.8096 27.4946 43.2969 28.8094L44.9258 28.8084L46.1914 28.7937C46.0133 28.2922 44.9806 25.0354 44.7148 24.8133Z" fill="white"/>
<path d="M92.8828 22.0869L95.0104 22.0997C94.9813 24.6642 95.004 27.2323 95.0033 29.7967C95.0026 30.8551 95.1102 32.012 94.9912 33.0563L94.8744 33.1363H92.8807L92.8765 28.4005C91.2828 28.3559 89.677 28.3956 88.0819 28.3977L88.0826 33.1384L85.9424 33.1342L85.9509 22.0899L88.0826 22.0948L88.0841 26.6107H92.8857L92.8828 22.0869Z" fill="white"/>
<path d="M96.2896 25.1482C96.9955 25.1684 97.7035 25.161 98.4093 25.1649C98.4008 26.2935 98.2224 29.4115 98.4957 30.3447C98.6033 30.7128 98.8185 31.0498 99.1669 31.229C99.6908 31.498 100.223 31.3422 100.744 31.1596C100.974 30.9019 101.173 30.6604 101.287 30.3277C101.66 29.2395 101.461 26.4465 101.455 25.1519C102.128 25.1699 102.802 25.1558 103.475 25.1523C103.459 25.9276 103.472 26.7056 103.471 27.4816L103.481 33.1328C102.82 33.1427 102.159 33.1377 101.498 33.1179L101.437 33.0464C101.447 32.8786 101.449 32.7419 101.42 32.5749C100.8 32.8432 100.249 33.2503 99.5442 33.2645C98.7272 33.2807 97.8408 33.0273 97.2546 32.4396C96.81 31.995 96.5388 31.3968 96.3993 30.79C96.0991 29.4845 96.2761 26.593 96.2896 25.1482Z" fill="white"/>
<path d="M67.6958 24.9257C68.7507 24.8431 69.8502 24.9176 70.7026 25.6282C71.3001 26.1258 71.4934 26.7233 71.5579 27.466L69.6512 27.4638C69.5415 27.2599 69.4318 27.0235 69.2597 26.8642C68.985 26.6107 68.5871 26.479 68.2154 26.4989C67.9266 26.5144 67.5577 26.6298 67.3779 26.8741C67.2688 27.0228 67.2087 27.1757 67.2504 27.3612C67.4671 28.3389 69.9528 28.2179 70.7444 28.7354C71.2478 29.0653 71.6343 29.6565 71.7462 30.2463C71.858 30.8495 71.7143 31.4725 71.3504 31.966C70.743 32.8035 69.807 33.1044 68.8328 33.2538C67.9308 33.3083 66.8851 33.0662 66.1629 32.5168C65.4861 32.0014 65.2426 31.3691 65.1505 30.555C65.7927 30.5564 66.4355 30.55 67.0777 30.5373C67.1152 30.6583 67.157 30.7751 67.2179 30.887C67.4975 31.4031 68.0561 31.5178 68.5737 31.67C68.9156 31.5915 69.3787 31.5037 69.6215 31.2275C69.768 31.0605 69.819 30.7709 69.7574 30.5585C69.5203 29.7415 67.1386 29.6452 66.3123 29.1368C65.8231 28.8352 65.4635 28.3963 65.3332 27.8299C65.2157 27.3166 65.2603 26.7396 65.5491 26.29C66.0702 25.4761 66.7895 25.1418 67.6958 24.9257Z" fill="white"/>
<path d="M80.5262 24.9234C81.1266 24.8748 81.7149 24.8781 82.3004 25.0364C82.9758 25.2192 83.693 25.5965 84.0343 26.2362C84.1985 26.5428 84.3246 27.0943 84.2141 27.4348C83.6668 27.5531 82.9985 27.4731 82.4363 27.4667C82.3535 27.1884 82.2834 26.9739 82.0576 26.7813C81.7715 26.542 81.3998 26.4288 81.0288 26.4691C80.7386 26.4989 80.3655 26.6419 80.2033 26.9017C80.1063 27.0568 80.0667 27.2161 80.1276 27.3945C80.4787 28.4289 82.5836 28.1832 83.402 28.6505C83.9231 28.9485 84.3592 29.4724 84.5072 30.0587C84.6665 30.6881 84.561 31.3876 84.1978 31.9292C83.6555 32.7377 82.7939 33.0421 81.8848 33.2184C80.992 33.3289 79.9584 33.1391 79.2121 32.6244C78.4461 32.0963 78.216 31.4336 78.0439 30.5677L79.9555 30.5535C80.0716 30.8459 80.1771 31.0739 80.4249 31.2764C80.7549 31.5469 81.1464 31.6693 81.5719 31.6127C81.9018 31.5688 82.2268 31.4173 82.4243 31.1412C82.5532 30.9599 82.6176 30.7397 82.556 30.5196C82.3167 29.6693 80.2062 29.7224 79.3686 29.2714C78.8029 28.9662 78.3548 28.4593 78.1756 27.837C78.0234 27.3102 78.0871 26.7615 78.3654 26.2879C78.8277 25.5034 79.6759 25.1196 80.5262 24.9234Z" fill="white"/>
<path d="M56.9955 22.9556C57.6299 22.9775 58.2692 22.964 58.9043 22.9667C58.8972 23.6833 58.9078 24.4 58.9354 25.1161L60.8187 25.1173L60.8145 26.7587L59.0211 26.758C59.0218 27.7909 58.7854 30.4558 59.2597 31.2537C59.63 31.5454 60.3691 31.4364 60.8187 31.4314L60.8123 32.7915C60.8166 32.9317 60.8159 33.0025 60.7444 33.125C60.4937 33.2453 60.2367 33.2722 59.9599 33.2743C59.2314 33.2807 58.2253 33.149 57.7014 32.6032C56.6493 31.5079 56.9856 28.2851 56.9906 26.7566L55.7754 26.7587L55.779 25.1135L56.9892 25.1217L56.9955 22.9556Z" fill="white"/>
<path d="M73.367 22.9466L75.2403 22.9573C75.2262 23.6751 75.2559 24.3963 75.2693 25.1141L77.1831 25.1103L77.1802 26.7594L75.3791 26.758C75.401 27.7414 75.1603 30.4877 75.6056 31.2311C76.0843 31.5171 76.6839 31.4406 77.222 31.4392C77.2156 31.9129 77.2248 32.3879 77.227 32.8623L77.2043 33.0421C77.0188 33.2382 76.7335 33.2297 76.4807 33.2361C75.7111 33.2545 74.6484 33.1327 74.0905 32.5487C73.0491 31.4583 73.3733 28.2809 73.3825 26.7573L72.1011 26.758C72.0848 26.2121 72.0912 25.6645 72.0869 25.1186L73.3634 25.1252L73.367 22.9466Z" fill="white"/>
<path d="M32.9512 21.7198C33.0497 21.7149 33.1453 21.7135 33.2433 21.7276C33.5495 21.772 33.8512 21.9199 34.0199 22.1887C34.1988 22.474 34.2233 22.8538 34.2478 23.1842C34.3692 24.8196 34.279 26.5208 34.2786 28.1619C34.2782 29.5022 34.4267 31.3196 34.1779 32.6103C34.0996 33.0159 33.8305 33.2099 33.5084 33.4294C33.3857 33.4443 33.2573 33.4613 33.1335 33.4542C32.8571 33.4386 32.5952 33.3154 32.4164 33.1044C32.2396 32.8956 32.2447 32.4764 32.2291 32.2145C32.1167 30.3334 32.2117 28.392 32.2134 26.5052C32.2144 25.433 32.067 23.3806 32.2924 22.4237C32.3731 22.0814 32.6816 21.902 32.9512 21.7198Z" fill="white"/>
<path d="M54.6727 25.0874L54.9419 25.0843C55.261 25.441 55.1025 26.5711 55.0923 27.0391C54.4182 27.032 53.7805 27.0051 53.2524 27.495C52.2614 28.414 52.5955 31.7819 52.5857 33.1335C52.0545 33.1285 51.0197 33.3225 50.6138 32.9848L50.5927 32.6499C50.6024 30.145 50.5394 27.6423 50.5554 25.1378C51.1984 25.1578 51.8436 25.1442 52.487 25.1407L52.4644 26.2468C52.5838 26.0755 52.7023 25.8921 52.8408 25.7359C53.3283 25.186 53.9895 25.1362 54.6727 25.0874Z" fill="white"/>
<path d="M61.9894 25.1205L64.01 25.1213L64.0149 33.1377L61.9709 33.1349L61.9894 25.1205Z" fill="white"/>
<path d="M30.1281 24.3465C30.4599 24.4076 30.7534 24.5323 30.9468 24.8205C31.245 25.265 31.253 29.6204 31.1036 30.242C31.0219 30.5818 30.7279 30.7475 30.4492 30.9111C30.1299 30.8919 29.7103 30.8636 29.4971 30.5868C29.1799 30.1755 29.2062 25.5465 29.3868 24.966C29.4917 24.6288 29.8385 24.4862 30.1281 24.3465Z" fill="white"/>
<path d="M62.8668 21.8177C63.4672 21.7472 64.0151 22.1668 64.1029 22.7648C64.1914 23.3628 63.7879 23.9225 63.1932 24.0283C62.7917 24.0995 62.3839 23.9471 62.1283 23.6304C61.872 23.3138 61.809 22.883 61.9627 22.5059C62.1163 22.1289 62.4625 21.8652 62.8668 21.8177Z" fill="white"/>
</svg>
