<svg width="116" height="45" viewBox="0 0 116 45" fill="none" xmlns="http://www.w3.org/2000/svg">
<path d="M21.8908 10.6384C22.3109 10.5901 22.7976 10.684 23.2023 10.8073C24.118 11.0863 24.8623 11.6832 25.3039 12.5359C25.7627 13.4099 25.8505 14.4322 25.548 15.3718C25.1637 16.5307 24.3391 17.1135 23.3097 17.6491L23.3215 21.029C24.0569 21.2533 24.7728 21.5072 25.4406 21.8943C26.9756 22.7841 28.0257 24.2847 28.466 25.9919C28.9313 27.7823 28.6671 29.6852 27.7306 31.281C26.8717 32.7274 25.5021 33.7956 23.8625 34.2048C21.7205 34.7401 19.9037 34.1607 18.0627 33.0661C17.249 33.9361 16.4449 34.8157 15.6515 35.7048C16.0063 36.5417 16.1241 37.4201 15.8888 38.3093C15.6589 39.1786 15.0498 39.9236 14.2707 40.364C13.3976 40.8581 12.4027 40.9475 11.4455 40.6736C10.4955 40.4017 9.69689 39.8137 9.23259 38.9294C8.77558 38.06 8.73707 37.0412 9.03337 36.113C9.37041 35.0583 10.0566 34.4086 11.0217 33.9265C12.0606 33.5201 12.9196 33.6539 13.9338 34.0193C14.7781 33.1307 15.5729 32.1969 16.4259 31.3161C15.4885 29.4776 15.1846 27.9114 15.672 25.8855C14.6108 25.39 13.5875 24.8134 12.5256 24.3171C11.9581 24.9078 11.264 25.3129 10.4494 25.4499C9.47808 25.6133 8.45385 25.3483 7.65544 24.7781C6.86426 24.2049 6.34378 23.3306 6.21599 22.362C6.08493 21.4229 6.33236 20.3883 6.93376 19.6472C7.55403 18.8827 8.51644 18.4209 9.48845 18.3191C10.4434 18.2261 11.3962 18.5177 12.1359 19.1286C13.0818 19.9209 13.3552 20.9061 13.4699 22.0798C14.4764 22.6969 15.6291 23.1724 16.6779 23.7234C18.0426 22.11 19.0403 21.6012 21.0295 20.988L21.0304 17.6335C20.6745 17.491 20.3191 17.3176 20.009 17.0896C19.2242 16.509 18.7084 15.6346 18.5812 14.6667C18.4636 13.7039 18.736 12.7338 19.3371 11.9724C19.994 11.1483 20.8722 10.7732 21.8908 10.6384ZM26.2765 27.3249C26.0742 25.0173 24.0461 23.3061 21.7375 23.4939C19.4084 23.6836 17.6788 25.7327 17.883 28.0603C18.0872 30.3888 20.1471 32.106 22.4738 31.8874C24.7798 31.6701 26.4788 29.6322 26.2765 27.3249Z" fill="#764191"/>
<path d="M104.917 22.084C105.603 22.0849 106.289 22.0938 106.975 22.1113L106.971 25.7373C107.499 25.3264 108.075 25.0199 108.744 24.9199C109.648 24.7831 110.57 25.0176 111.299 25.5693C112.179 26.2347 112.641 27.3544 112.774 28.4248C112.944 29.7827 112.625 31.0884 111.787 32.1709C111.231 32.7074 110.564 33.0829 109.795 33.209C108.666 33.3945 107.771 32.9996 106.891 32.3428L106.887 33.1348L104.918 33.1309L104.917 22.084ZM108.443 26.835C107.832 27.0381 107.406 27.3283 107.108 27.917C106.777 28.5705 106.754 29.3785 107.013 30.0596C107.21 30.5811 107.58 31.0325 108.095 31.2646C108.469 31.4339 108.821 31.4391 109.224 31.415C109.862 31.1736 110.292 30.8639 110.581 30.2246C110.883 29.557 110.878 28.752 110.592 28.0801C110.372 27.5633 109.98 27.147 109.452 26.9424C109.122 26.815 108.791 26.7982 108.443 26.835Z" fill="#764191"/>
<path d="M45.9814 22.063C47.1884 25.783 48.733 29.4019 49.9102 33.1323L47.6855 33.1343C47.4248 32.3378 47.1733 31.437 46.7754 30.7007C46.5154 30.5896 46.2077 30.6268 45.9297 30.6304C44.8568 30.641 43.7837 30.638 42.7109 30.6196C42.3741 31.4415 42.1026 32.2866 41.8359 33.1333L39.5703 33.1313C40.7536 29.418 42.1641 25.7521 43.4414 22.0679C44.2864 22.0862 45.1361 22.0664 45.9814 22.063ZM44.7129 24.813C44.2445 26.1445 43.8077 27.4943 43.2949 28.8091L44.9238 28.8081L46.1895 28.7944C46.0117 28.294 44.9786 25.0349 44.7129 24.813Z" fill="#764191"/>
<path d="M92.8819 22.0869L95.0094 22.0997C94.9804 24.6642 95.003 27.2323 95.0023 29.7967C95.0016 30.8551 95.1092 32.012 94.9903 33.0563L94.8735 33.1363H92.8797L92.8755 28.4005C91.2818 28.3559 89.6761 28.3956 88.081 28.3977L88.0817 33.1384L85.9414 33.1342L85.9499 22.0899L88.0817 22.0948L88.0831 26.6107H92.8847L92.8819 22.0869Z" fill="#764191"/>
<path d="M96.2897 25.1484C96.9955 25.1686 97.7035 25.1612 98.4094 25.1651C98.4009 26.2938 98.2225 29.4118 98.4958 30.3449C98.6034 30.713 98.8186 31.0501 99.1669 31.2292C99.6909 31.4982 100.223 31.3425 100.744 31.1598C100.974 30.9021 101.173 30.6607 101.287 30.3279C101.66 29.2397 101.461 26.4467 101.455 25.1521C102.128 25.1701 102.802 25.156 103.475 25.1525C103.46 25.9278 103.472 26.7058 103.471 27.4818L103.481 33.133C102.82 33.1429 102.159 33.1379 101.498 33.1181L101.437 33.0466C101.447 32.8788 101.45 32.7422 101.42 32.5751C100.8 32.8434 100.249 33.2505 99.5443 33.2647C98.7273 33.2809 97.8409 33.0275 97.2546 32.4398C96.81 31.9952 96.5389 31.397 96.3994 30.7902C96.0992 29.4847 96.2762 26.5932 96.2897 25.1484Z" fill="#764191"/>
<path d="M67.6955 24.9258C68.7504 24.8432 69.8499 24.9177 70.7024 25.6283C71.2999 26.1259 71.4932 26.7234 71.5576 27.4661L69.651 27.464C69.5412 27.2601 69.4315 27.0236 69.2595 26.8643C68.9848 26.6108 68.5869 26.4791 68.2152 26.499C67.9263 26.5145 67.5574 26.6299 67.3776 26.8742C67.2686 27.0229 67.2084 27.1758 67.2502 27.3613C67.4668 28.339 69.9526 28.218 70.7441 28.7355C71.2475 29.0654 71.6341 29.6566 71.7459 30.2464C71.8578 30.8496 71.7141 31.4726 71.3502 31.9661C70.7427 32.8036 69.8067 33.1045 68.8325 33.2539C67.9306 33.3085 66.8849 33.0663 66.1627 32.5169C65.4859 32.0015 65.2423 31.3693 65.1503 30.5551C65.7924 30.5565 66.4353 30.5501 67.0774 30.5374C67.1149 30.6584 67.1567 30.7752 67.2176 30.8871C67.4973 31.4032 68.0559 31.5179 68.5734 31.6702C68.9154 31.5916 69.3784 31.5038 69.6212 31.2277C69.7678 31.0606 69.8188 30.771 69.7572 30.5586C69.52 29.7416 67.1383 29.6453 66.3121 29.137C65.8229 28.8353 65.4632 28.3964 65.3329 27.83C65.2154 27.3167 65.26 26.7397 65.5489 26.2901C66.07 25.4762 66.7893 25.142 67.6955 24.9258Z" fill="#764191"/>
<path d="M80.5252 24.9236C81.1256 24.8749 81.7139 24.8782 82.2994 25.0366C82.9749 25.2194 83.692 25.5966 84.0333 26.2363C84.1976 26.5429 84.3236 27.0944 84.2131 27.435C83.6659 27.5532 82.9975 27.4732 82.4354 27.4668C82.3525 27.1886 82.2824 26.974 82.0566 26.7815C81.7706 26.5422 81.3989 26.4289 81.0279 26.4692C80.7376 26.499 80.3645 26.642 80.2023 26.9018C80.1054 27.0569 80.0657 27.2162 80.1266 27.3946C80.4778 28.429 82.5826 28.1833 83.4011 28.6506C83.9222 28.9486 84.3583 29.4726 84.5062 30.0588C84.6655 30.6882 84.5601 31.3877 84.1969 31.9293C83.6545 32.7378 82.7929 33.0423 81.8838 33.2186C80.9911 33.329 79.9574 33.1393 79.2112 32.6245C78.4451 32.0964 78.215 31.4337 78.043 30.5678L79.9546 30.5537C80.0707 30.8461 80.1762 31.074 80.424 31.2765C80.7539 31.547 81.1454 31.6695 81.5709 31.6128C81.9008 31.5689 82.2258 31.4174 82.4233 31.1413C82.5522 30.96 82.6166 30.7399 82.555 30.5197C82.3157 29.6694 80.2052 29.7225 79.3676 29.2715C78.8019 28.9663 78.3538 28.4594 78.1747 27.8371C78.0224 27.3103 78.0862 26.7616 78.3644 26.288C78.8267 25.5035 79.6749 25.1197 80.5252 24.9236Z" fill="#764191"/>
<path d="M56.9954 22.9556C57.6297 22.9774 58.269 22.9639 58.9041 22.9667C58.897 23.6832 58.9076 24.3999 58.9353 25.1161L60.8185 25.1172L60.8143 26.7586L59.0209 26.7579C59.0216 27.7909 58.7852 30.4558 59.2595 31.2537C59.6298 31.5454 60.369 31.4363 60.8185 31.4314L60.8122 32.7914C60.8164 32.9316 60.8157 33.0024 60.7442 33.1249C60.4936 33.2453 60.2366 33.2722 59.9597 33.2743C59.2312 33.2807 58.2251 33.149 57.7012 32.6031C56.6492 31.5078 56.9854 28.2851 56.9904 26.7565L55.7752 26.7586L55.7788 25.1135L56.989 25.1217L56.9954 22.9556Z" fill="#764191"/>
<path d="M73.366 22.9468L75.2393 22.9575C75.2252 23.6753 75.2549 24.3965 75.2684 25.1143L77.1821 25.1105L77.1792 26.7596L75.3781 26.7582C75.4001 27.7416 75.1593 30.4879 75.6047 31.2313C76.0833 31.5173 76.6829 31.4409 77.221 31.4394C77.2146 31.9131 77.2239 32.3882 77.226 32.8625L77.2033 33.0423C77.0178 33.2385 76.7325 33.23 76.4797 33.2363C75.7102 33.2547 74.6475 33.133 74.0896 32.5489C73.0481 31.4586 73.3724 28.2811 73.3816 26.7575L72.1001 26.7582C72.0838 26.2123 72.0902 25.6647 72.0859 25.1188L73.3625 25.1254L73.366 22.9468Z" fill="#764191"/>
<path d="M32.9502 21.7197C33.0487 21.7148 33.1443 21.7134 33.2423 21.7276C33.5485 21.772 33.8502 21.9199 34.0189 22.1887C34.1978 22.474 34.2223 22.8538 34.2468 23.1842C34.3682 24.8195 34.278 26.5208 34.2776 28.1619C34.2772 29.5021 34.4258 31.3196 34.1769 32.6102C34.0986 33.0159 33.8296 33.2099 33.5074 33.4294C33.3847 33.4442 33.2563 33.4612 33.1325 33.4542C32.8561 33.4386 32.5942 33.3154 32.4154 33.1044C32.2386 32.8956 32.2437 32.4764 32.2281 32.2145C32.1157 30.3333 32.2107 28.392 32.2124 26.5052C32.2134 25.433 32.066 23.3805 32.2915 22.4237C32.3721 22.0814 32.6806 21.902 32.9502 21.7197Z" fill="#764191"/>
<path d="M54.6737 25.0876L54.9428 25.0845C55.2619 25.4412 55.1035 26.5713 55.0933 27.0392C54.4191 27.0322 53.7815 27.0053 53.2534 27.4952C52.2624 28.4142 52.5965 31.7821 52.5866 33.1336C52.0554 33.1287 51.0206 33.3227 50.6148 32.985L50.5936 32.6501C50.6033 30.1452 50.5403 27.6425 50.5563 25.138C51.1994 25.158 51.8446 25.1444 52.488 25.1409L52.4654 26.247C52.5847 26.0757 52.7032 25.8923 52.8417 25.7361C53.3293 25.1861 53.9905 25.1364 54.6737 25.0876Z" fill="#764191"/>
<path d="M61.9891 25.1206L64.0097 25.1214L64.0147 33.1378L61.9707 33.1349L61.9891 25.1206Z" fill="#764191"/>
<path d="M30.1281 24.3467C30.4599 24.4079 30.7534 24.5325 30.9468 24.8207C31.245 25.2652 31.253 29.6206 31.1036 30.2422C31.0219 30.582 30.7279 30.7477 30.4492 30.9113C30.1299 30.8921 29.7103 30.8638 29.4971 30.587C29.1799 30.1757 29.2062 25.5467 29.3868 24.9662C29.4917 24.629 29.8385 24.4864 30.1281 24.3467Z" fill="#764191"/>
<path d="M62.866 21.8178C63.4664 21.7472 64.0144 22.1668 64.1021 22.7648C64.1906 23.3629 63.7871 23.9226 63.1924 24.0284C62.7909 24.0996 62.3831 23.9472 62.1275 23.6305C61.8713 23.3139 61.8082 22.883 61.9619 22.506C62.1155 22.129 62.4617 21.8653 62.866 21.8178Z" fill="#764191"/>
</svg>
