<svg width="32" height="32" viewBox="0 0 32 32" fill="none" xmlns="http://www.w3.org/2000/svg">
<path d="M22.8348 22.3639L22.3633 22.8353C22.103 23.0956 21.6809 23.0956 21.4205 22.8353L15.9994 17.4141L10.5782 22.8352C10.3179 23.0956 9.89577 23.0956 9.63542 22.8352L9.16401 22.3638C8.90366 22.1035 8.90366 21.6814 9.16401 21.421L14.5852 15.9999L9.16401 10.5787C8.90366 10.3184 8.90366 9.89626 9.16401 9.63591L9.63541 9.16451C9.89576 8.90416 10.3179 8.90416 10.5782 9.16451L15.9994 14.5857L21.4205 9.1645C21.6809 8.90415 22.103 8.90415 22.3633 9.1645L22.8348 9.6359C23.0951 9.89625 23.0951 10.3184 22.8348 10.5787L17.4136 15.9999L22.8348 21.421C23.0951 21.6814 23.0951 22.1035 22.8348 22.3639Z" fill="white"/>
</svg>
