<svg aria-hidden="true" style="position: absolute; width: 0; height: 0; overflow: hidden;" version="1.1" xmlns="http://www.w3.org/2000/svg" xmlns:xlink="http://www.w3.org/1999/xlink">
<defs>
<symbol id="company-logo-whiet" viewBox="0 0 119 51">
<path d="M21.8907 10.6379C22.3107 10.5896 22.7975 10.6836 23.2022 10.8069C24.1179 11.0858 24.8622 11.6836 25.3038 12.5364C25.7625 13.4105 25.8505 14.4327 25.5479 15.3723C25.1636 16.5309 24.3397 17.1132 23.3106 17.6487L23.3223 21.0286C24.0578 21.2528 24.7736 21.5077 25.4414 21.8948C26.9763 22.7847 28.0267 24.2852 28.4668 25.9924C28.9321 27.7827 28.6669 29.6849 27.7305 31.2805C26.8716 32.727 25.502 33.7961 23.8623 34.2053C21.7206 34.7404 19.9043 34.1601 18.0635 33.0657C17.2498 33.9358 16.4459 34.8161 15.6524 35.7053C16.007 36.542 16.1238 37.4198 15.8887 38.3088C15.6588 39.1782 15.0497 39.9231 14.2705 40.3635C13.3974 40.8577 12.4026 40.948 11.4454 40.6741C10.4954 40.4022 9.69676 39.8132 9.23246 38.929C8.77564 38.0596 8.73699 37.0406 9.03324 36.1126C9.37036 35.0579 10.0573 34.4081 11.0225 33.926C12.0612 33.5198 12.9197 33.6536 13.9336 34.0188C14.778 33.1303 15.5737 32.1974 16.4268 31.3167C15.4893 29.4781 15.1856 27.9119 15.6729 25.886C14.6115 25.3905 13.5875 24.813 12.5254 24.3167C11.958 24.9073 11.2647 25.3124 10.4502 25.4495C9.47873 25.613 8.45386 25.348 7.65531 24.7776C6.86425 24.2044 6.34368 23.3311 6.21586 22.3626C6.08467 21.4233 6.33212 20.388 6.93363 19.6467C7.55385 18.8824 8.51645 18.4215 9.48832 18.3196C10.4434 18.2266 11.397 18.518 12.1368 19.1292C13.0823 19.9213 13.3551 20.9058 13.4698 22.0794C14.4764 22.6965 15.6289 23.1728 16.6778 23.7239C18.0425 22.1105 19.0402 21.6017 21.0293 20.9885L21.0313 17.634C20.6752 17.4915 20.3191 17.3182 20.0088 17.0901C19.2241 16.5096 18.7094 15.635 18.5821 14.6672C18.4644 13.7043 18.7359 12.7334 19.337 11.9719C19.9939 11.1479 20.8721 10.7727 21.8907 10.6379ZM26.2774 27.3245C26.075 25.0169 24.0469 23.3057 21.7383 23.4934C19.4093 23.6831 17.6799 25.7323 17.8838 28.0598C18.088 30.3883 20.1479 32.1056 22.4746 31.887C24.7807 31.6696 26.4797 29.6318 26.2774 27.3245Z" fill=""/>
<path d="M104.916 22.084C105.602 22.0849 106.287 22.0948 106.973 22.1123L106.969 25.7373C107.498 25.3264 108.073 25.0209 108.743 24.9209C109.647 24.784 110.568 25.0176 111.298 25.5693C112.178 26.2347 112.639 27.3553 112.773 28.4258C112.943 29.7835 112.624 31.0885 111.786 32.1709C111.23 32.7075 110.562 33.0829 109.793 33.209C108.664 33.3943 107.77 32.9995 106.889 32.3428L106.885 33.1347L104.917 33.1318L104.916 22.084ZM108.442 26.8349C107.83 27.0381 107.405 27.3289 107.107 27.9179C106.776 28.5714 106.753 29.3785 107.011 30.0596C107.209 30.5811 107.578 31.0324 108.094 31.2646C108.467 31.4338 108.82 31.4391 109.222 31.415C109.861 31.1736 110.291 30.8639 110.58 30.2246C110.881 29.557 110.877 28.7519 110.591 28.0801C110.37 27.5633 109.979 27.1469 109.451 26.9424C109.121 26.815 108.79 26.7981 108.442 26.8349Z" fill=""/>
<path d="M45.9824 22.0633C47.1893 25.7831 48.734 29.4013 49.9111 33.1316L47.6865 33.1346C47.4258 32.3381 47.1742 31.4372 46.7764 30.701C46.5164 30.5898 46.2086 30.6271 45.9307 30.6306C44.8578 30.6413 43.7846 30.6373 42.7119 30.6189C42.3751 31.4409 42.1036 32.2868 41.8369 33.1336L39.5713 33.1316C40.7545 29.4183 42.1651 25.7523 43.4424 22.0681C44.2874 22.0865 45.137 22.0667 45.9824 22.0633ZM44.7148 24.8133C44.2464 26.1448 43.8096 27.4946 43.2969 28.8094L44.9258 28.8084L46.1914 28.7937C46.0133 28.2922 44.9806 25.0354 44.7148 24.8133Z" fill=""/>
<path d="M92.8828 22.0869L95.0104 22.0997C94.9813 24.6642 95.004 27.2323 95.0033 29.7967C95.0026 30.8551 95.1102 32.012 94.9912 33.0563L94.8744 33.1363H92.8807L92.8765 28.4005C91.2828 28.3559 89.677 28.3956 88.0819 28.3977L88.0826 33.1384L85.9424 33.1342L85.9509 22.0899L88.0826 22.0948L88.0841 26.6107H92.8857L92.8828 22.0869Z" fill="white"/>
<path d="M96.2896 25.1482C96.9955 25.1684 97.7035 25.161 98.4093 25.1649C98.4008 26.2935 98.2224 29.4115 98.4957 30.3447C98.6033 30.7128 98.8185 31.0498 99.1669 31.229C99.6908 31.498 100.223 31.3422 100.744 31.1596C100.974 30.9019 101.173 30.6604 101.287 30.3277C101.66 29.2395 101.461 26.4465 101.455 25.1519C102.128 25.1699 102.802 25.1558 103.475 25.1523C103.459 25.9276 103.472 26.7056 103.471 27.4816L103.481 33.1328C102.82 33.1427 102.159 33.1377 101.498 33.1179L101.437 33.0464C101.447 32.8786 101.449 32.7419 101.42 32.5749C100.8 32.8432 100.249 33.2503 99.5442 33.2645C98.7272 33.2807 97.8408 33.0273 97.2546 32.4396C96.81 31.995 96.5388 31.3968 96.3993 30.79C96.0991 29.4845 96.2761 26.593 96.2896 25.1482Z" fill=""/>
<path d="M67.6958 24.9257C68.7507 24.8431 69.8502 24.9176 70.7026 25.6282C71.3001 26.1258 71.4934 26.7233 71.5579 27.466L69.6512 27.4638C69.5415 27.2599 69.4318 27.0235 69.2597 26.8642C68.985 26.6107 68.5871 26.479 68.2154 26.4989C67.9266 26.5144 67.5577 26.6298 67.3779 26.8741C67.2688 27.0228 67.2087 27.1757 67.2504 27.3612C67.4671 28.3389 69.9528 28.2179 70.7444 28.7354C71.2478 29.0653 71.6343 29.6565 71.7462 30.2463C71.858 30.8495 71.7143 31.4725 71.3504 31.966C70.743 32.8035 69.807 33.1044 68.8328 33.2538C67.9308 33.3083 66.8851 33.0662 66.1629 32.5168C65.4861 32.0014 65.2426 31.3691 65.1505 30.555C65.7927 30.5564 66.4355 30.55 67.0777 30.5373C67.1152 30.6583 67.157 30.7751 67.2179 30.887C67.4975 31.4031 68.0561 31.5178 68.5737 31.67C68.9156 31.5915 69.3787 31.5037 69.6215 31.2275C69.768 31.0605 69.819 30.7709 69.7574 30.5585C69.5203 29.7415 67.1386 29.6452 66.3123 29.1368C65.8231 28.8352 65.4635 28.3963 65.3332 27.8299C65.2157 27.3166 65.2603 26.7396 65.5491 26.29C66.0702 25.4761 66.7895 25.1418 67.6958 24.9257Z" fill=""/>
<path d="M80.5262 24.9234C81.1266 24.8748 81.7149 24.8781 82.3004 25.0364C82.9758 25.2192 83.693 25.5965 84.0343 26.2362C84.1985 26.5428 84.3246 27.0943 84.2141 27.4348C83.6668 27.5531 82.9985 27.4731 82.4363 27.4667C82.3535 27.1884 82.2834 26.9739 82.0576 26.7813C81.7715 26.542 81.3998 26.4288 81.0288 26.4691C80.7386 26.4989 80.3655 26.6419 80.2033 26.9017C80.1063 27.0568 80.0667 27.2161 80.1276 27.3945C80.4787 28.4289 82.5836 28.1832 83.402 28.6505C83.9231 28.9485 84.3592 29.4724 84.5072 30.0587C84.6665 30.6881 84.561 31.3876 84.1978 31.9292C83.6555 32.7377 82.7939 33.0421 81.8848 33.2184C80.992 33.3289 79.9584 33.1391 79.2121 32.6244C78.4461 32.0963 78.216 31.4336 78.0439 30.5677L79.9555 30.5535C80.0716 30.8459 80.1771 31.0739 80.4249 31.2764C80.7549 31.5469 81.1464 31.6693 81.5719 31.6127C81.9018 31.5688 82.2268 31.4173 82.4243 31.1412C82.5532 30.9599 82.6176 30.7397 82.556 30.5196C82.3167 29.6693 80.2062 29.7224 79.3686 29.2714C78.8029 28.9662 78.3548 28.4593 78.1756 27.837C78.0234 27.3102 78.0871 26.7615 78.3654 26.2879C78.8277 25.5034 79.6759 25.1196 80.5262 24.9234Z"/>
<path d="M56.9955 22.9556C57.6299 22.9775 58.2692 22.964 58.9043 22.9667C58.8972 23.6833 58.9078 24.4 58.9354 25.1161L60.8187 25.1173L60.8145 26.7587L59.0211 26.758C59.0218 27.7909 58.7854 30.4558 59.2597 31.2537C59.63 31.5454 60.3691 31.4364 60.8187 31.4314L60.8123 32.7915C60.8166 32.9317 60.8159 33.0025 60.7444 33.125C60.4937 33.2453 60.2367 33.2722 59.9599 33.2743C59.2314 33.2807 58.2253 33.149 57.7014 32.6032C56.6493 31.5079 56.9856 28.2851 56.9906 26.7566L55.7754 26.7587L55.779 25.1135L56.9892 25.1217L56.9955 22.9556Z" fill=""/>
<path d="M73.367 22.9466L75.2403 22.9573C75.2262 23.6751 75.2559 24.3963 75.2693 25.1141L77.1831 25.1103L77.1802 26.7594L75.3791 26.758C75.401 27.7414 75.1603 30.4877 75.6056 31.2311C76.0843 31.5171 76.6839 31.4406 77.222 31.4392C77.2156 31.9129 77.2248 32.3879 77.227 32.8623L77.2043 33.0421C77.0188 33.2382 76.7335 33.2297 76.4807 33.2361C75.7111 33.2545 74.6484 33.1327 74.0905 32.5487C73.0491 31.4583 73.3733 28.2809 73.3825 26.7573L72.1011 26.758C72.0848 26.2121 72.0912 25.6645 72.0869 25.1186L73.3634 25.1252L73.367 22.9466Z" fill=""/>
<path d="M32.9512 21.7198C33.0497 21.7149 33.1453 21.7135 33.2433 21.7276C33.5495 21.772 33.8512 21.9199 34.0199 22.1887C34.1988 22.474 34.2233 22.8538 34.2478 23.1842C34.3692 24.8196 34.279 26.5208 34.2786 28.1619C34.2782 29.5022 34.4267 31.3196 34.1779 32.6103C34.0996 33.0159 33.8305 33.2099 33.5084 33.4294C33.3857 33.4443 33.2573 33.4613 33.1335 33.4542C32.8571 33.4386 32.5952 33.3154 32.4164 33.1044C32.2396 32.8956 32.2447 32.4764 32.2291 32.2145C32.1167 30.3334 32.2117 28.392 32.2134 26.5052C32.2144 25.433 32.067 23.3806 32.2924 22.4237C32.3731 22.0814 32.6816 21.902 32.9512 21.7198Z" fill=""/>
<path d="M54.6727 25.0874L54.9419 25.0843C55.261 25.441 55.1025 26.5711 55.0923 27.0391C54.4182 27.032 53.7805 27.0051 53.2524 27.495C52.2614 28.414 52.5955 31.7819 52.5857 33.1335C52.0545 33.1285 51.0197 33.3225 50.6138 32.9848L50.5927 32.6499C50.6024 30.145 50.5394 27.6423 50.5554 25.1378C51.1984 25.1578 51.8436 25.1442 52.487 25.1407L52.4644 26.2468C52.5838 26.0755 52.7023 25.8921 52.8408 25.7359C53.3283 25.186 53.9895 25.1362 54.6727 25.0874Z" fill=""/>
<path d="M61.9894 25.1205L64.01 25.1213L64.0149 33.1377L61.9709 33.1349L61.9894 25.1205Z" fill=""/>
<path d="M30.1281 24.3465C30.4599 24.4076 30.7534 24.5323 30.9468 24.8205C31.245 25.265 31.253 29.6204 31.1036 30.242C31.0219 30.5818 30.7279 30.7475 30.4492 30.9111C30.1299 30.8919 29.7103 30.8636 29.4971 30.5868C29.1799 30.1755 29.2062 25.5465 29.3868 24.966C29.4917 24.6288 29.8385 24.4862 30.1281 24.3465Z "fill=""/>
<path d="M62.8668 21.8177C63.4672 21.7472 64.0151 22.1668 64.1029 22.7648C64.1914 23.3628 63.7879 23.9225 63.1932 24.0283C62.7917 24.0995 62.3839 23.9471 62.1283 23.6304C61.872 23.3138 61.809 22.883 61.9627 22.5059C62.1163 22.1289 62.4625 21.8652 62.8668 21.8177Z" fill=""/>
</symbol>

<symbol id="company-logo-affair" viewBox="0 0 116 45">
<path d="M21.8908 10.6384C22.3109 10.5901 22.7976 10.684 23.2023 10.8073C24.118 11.0863 24.8623 11.6832 25.3039 12.5359C25.7627 13.4099 25.8505 14.4322 25.548 15.3718C25.1637 16.5307 24.3391 17.1135 23.3097 17.6491L23.3215 21.029C24.0569 21.2533 24.7728 21.5072 25.4406 21.8943C26.9756 22.7841 28.0257 24.2847 28.466 25.9919C28.9313 27.7823 28.6671 29.6852 27.7306 31.281C26.8717 32.7274 25.5021 33.7956 23.8625 34.2048C21.7205 34.7401 19.9037 34.1607 18.0627 33.0661C17.249 33.9361 16.4449 34.8157 15.6515 35.7048C16.0063 36.5417 16.1241 37.4201 15.8888 38.3093C15.6589 39.1786 15.0498 39.9236 14.2707 40.364C13.3976 40.8581 12.4027 40.9475 11.4455 40.6736C10.4955 40.4017 9.69689 39.8137 9.23259 38.9294C8.77558 38.06 8.73707 37.0412 9.03337 36.113C9.37041 35.0583 10.0566 34.4086 11.0217 33.9265C12.0606 33.5201 12.9196 33.6539 13.9338 34.0193C14.7781 33.1307 15.5729 32.1969 16.4259 31.3161C15.4885 29.4776 15.1846 27.9114 15.672 25.8855C14.6108 25.39 13.5875 24.8134 12.5256 24.3171C11.9581 24.9078 11.264 25.3129 10.4494 25.4499C9.47808 25.6133 8.45385 25.3483 7.65544 24.7781C6.86426 24.2049 6.34378 23.3306 6.21599 22.362C6.08493 21.4229 6.33236 20.3883 6.93376 19.6472C7.55403 18.8827 8.51644 18.4209 9.48845 18.3191C10.4434 18.2261 11.3962 18.5177 12.1359 19.1286C13.0818 19.9209 13.3552 20.9061 13.4699 22.0798C14.4764 22.6969 15.6291 23.1724 16.6779 23.7234C18.0426 22.11 19.0403 21.6012 21.0295 20.988L21.0304 17.6335C20.6745 17.491 20.3191 17.3176 20.009 17.0896C19.2242 16.509 18.7084 15.6346 18.5812 14.6667C18.4636 13.7039 18.736 12.7338 19.3371 11.9724C19.994 11.1483 20.8722 10.7732 21.8908 10.6384ZM26.2765 27.3249C26.0742 25.0173 24.0461 23.3061 21.7375 23.4939C19.4084 23.6836 17.6788 25.7327 17.883 28.0603C18.0872 30.3888 20.1471 32.106 22.4738 31.8874C24.7798 31.6701 26.4788 29.6322 26.2765 27.3249Z" fill="#764191"/>
<path d="M104.917 22.084C105.603 22.0849 106.289 22.0938 106.975 22.1113L106.971 25.7373C107.499 25.3264 108.075 25.0199 108.744 24.9199C109.648 24.7831 110.57 25.0176 111.299 25.5693C112.179 26.2347 112.641 27.3544 112.774 28.4248C112.944 29.7827 112.625 31.0884 111.787 32.1709C111.231 32.7074 110.564 33.0829 109.795 33.209C108.666 33.3945 107.771 32.9996 106.891 32.3428L106.887 33.1348L104.918 33.1309L104.917 22.084ZM108.443 26.835C107.832 27.0381 107.406 27.3283 107.108 27.917C106.777 28.5705 106.754 29.3785 107.013 30.0596C107.21 30.5811 107.58 31.0325 108.095 31.2646C108.469 31.4339 108.821 31.4391 109.224 31.415C109.862 31.1736 110.292 30.8639 110.581 30.2246C110.883 29.557 110.878 28.752 110.592 28.0801C110.372 27.5633 109.98 27.147 109.452 26.9424C109.122 26.815 108.791 26.7982 108.443 26.835Z" fill="#764191"/>
<path d="M45.9814 22.063C47.1884 25.783 48.733 29.4019 49.9102 33.1323L47.6855 33.1343C47.4248 32.3378 47.1733 31.437 46.7754 30.7007C46.5154 30.5896 46.2077 30.6268 45.9297 30.6304C44.8568 30.641 43.7837 30.638 42.7109 30.6196C42.3741 31.4415 42.1026 32.2866 41.8359 33.1333L39.5703 33.1313C40.7536 29.418 42.1641 25.7521 43.4414 22.0679C44.2864 22.0862 45.1361 22.0664 45.9814 22.063ZM44.7129 24.813C44.2445 26.1445 43.8077 27.4943 43.2949 28.8091L44.9238 28.8081L46.1895 28.7944C46.0117 28.294 44.9786 25.0349 44.7129 24.813Z" fill="#764191"/>
<path d="M92.8819 22.0869L95.0094 22.0997C94.9804 24.6642 95.003 27.2323 95.0023 29.7967C95.0016 30.8551 95.1092 32.012 94.9903 33.0563L94.8735 33.1363H92.8797L92.8755 28.4005C91.2818 28.3559 89.6761 28.3956 88.081 28.3977L88.0817 33.1384L85.9414 33.1342L85.9499 22.0899L88.0817 22.0948L88.0831 26.6107H92.8847L92.8819 22.0869Z" fill="#764191"/>
<path d="M96.2897 25.1484C96.9955 25.1686 97.7035 25.1612 98.4094 25.1651C98.4009 26.2938 98.2225 29.4118 98.4958 30.3449C98.6034 30.713 98.8186 31.0501 99.1669 31.2292C99.6909 31.4982 100.223 31.3425 100.744 31.1598C100.974 30.9021 101.173 30.6607 101.287 30.3279C101.66 29.2397 101.461 26.4467 101.455 25.1521C102.128 25.1701 102.802 25.156 103.475 25.1525C103.46 25.9278 103.472 26.7058 103.471 27.4818L103.481 33.133C102.82 33.1429 102.159 33.1379 101.498 33.1181L101.437 33.0466C101.447 32.8788 101.45 32.7422 101.42 32.5751C100.8 32.8434 100.249 33.2505 99.5443 33.2647C98.7273 33.2809 97.8409 33.0275 97.2546 32.4398C96.81 31.9952 96.5389 31.397 96.3994 30.7902C96.0992 29.4847 96.2762 26.5932 96.2897 25.1484Z" fill="#764191"/>
<path d="M67.6955 24.9258C68.7504 24.8432 69.8499 24.9177 70.7024 25.6283C71.2999 26.1259 71.4932 26.7234 71.5576 27.4661L69.651 27.464C69.5412 27.2601 69.4315 27.0236 69.2595 26.8643C68.9848 26.6108 68.5869 26.4791 68.2152 26.499C67.9263 26.5145 67.5574 26.6299 67.3776 26.8742C67.2686 27.0229 67.2084 27.1758 67.2502 27.3613C67.4668 28.339 69.9526 28.218 70.7441 28.7355C71.2475 29.0654 71.6341 29.6566 71.7459 30.2464C71.8578 30.8496 71.7141 31.4726 71.3502 31.9661C70.7427 32.8036 69.8067 33.1045 68.8325 33.2539C67.9306 33.3085 66.8849 33.0663 66.1627 32.5169C65.4859 32.0015 65.2423 31.3693 65.1503 30.5551C65.7924 30.5565 66.4353 30.5501 67.0774 30.5374C67.1149 30.6584 67.1567 30.7752 67.2176 30.8871C67.4973 31.4032 68.0559 31.5179 68.5734 31.6702C68.9154 31.5916 69.3784 31.5038 69.6212 31.2277C69.7678 31.0606 69.8188 30.771 69.7572 30.5586C69.52 29.7416 67.1383 29.6453 66.3121 29.137C65.8229 28.8353 65.4632 28.3964 65.3329 27.83C65.2154 27.3167 65.26 26.7397 65.5489 26.2901C66.07 25.4762 66.7893 25.142 67.6955 24.9258Z" fill="#764191"/>
<path d="M80.5252 24.9236C81.1256 24.8749 81.7139 24.8782 82.2994 25.0366C82.9749 25.2194 83.692 25.5966 84.0333 26.2363C84.1976 26.5429 84.3236 27.0944 84.2131 27.435C83.6659 27.5532 82.9975 27.4732 82.4354 27.4668C82.3525 27.1886 82.2824 26.974 82.0566 26.7815C81.7706 26.5422 81.3989 26.4289 81.0279 26.4692C80.7376 26.499 80.3645 26.642 80.2023 26.9018C80.1054 27.0569 80.0657 27.2162 80.1266 27.3946C80.4778 28.429 82.5826 28.1833 83.4011 28.6506C83.9222 28.9486 84.3583 29.4726 84.5062 30.0588C84.6655 30.6882 84.5601 31.3877 84.1969 31.9293C83.6545 32.7378 82.7929 33.0423 81.8838 33.2186C80.9911 33.329 79.9574 33.1393 79.2112 32.6245C78.4451 32.0964 78.215 31.4337 78.043 30.5678L79.9546 30.5537C80.0707 30.8461 80.1762 31.074 80.424 31.2765C80.7539 31.547 81.1454 31.6695 81.5709 31.6128C81.9008 31.5689 82.2258 31.4174 82.4233 31.1413C82.5522 30.96 82.6166 30.7399 82.555 30.5197C82.3157 29.6694 80.2052 29.7225 79.3676 29.2715C78.8019 28.9663 78.3538 28.4594 78.1747 27.8371C78.0224 27.3103 78.0862 26.7616 78.3644 26.288C78.8267 25.5035 79.6749 25.1197 80.5252 24.9236Z" fill="#764191"/>
<path d="M56.9954 22.9556C57.6297 22.9774 58.269 22.9639 58.9041 22.9667C58.897 23.6832 58.9076 24.3999 58.9353 25.1161L60.8185 25.1172L60.8143 26.7586L59.0209 26.7579C59.0216 27.7909 58.7852 30.4558 59.2595 31.2537C59.6298 31.5454 60.369 31.4363 60.8185 31.4314L60.8122 32.7914C60.8164 32.9316 60.8157 33.0024 60.7442 33.1249C60.4936 33.2453 60.2366 33.2722 59.9597 33.2743C59.2312 33.2807 58.2251 33.149 57.7012 32.6031C56.6492 31.5078 56.9854 28.2851 56.9904 26.7565L55.7752 26.7586L55.7788 25.1135L56.989 25.1217L56.9954 22.9556Z" fill="#764191"/>
<path d="M73.366 22.9468L75.2393 22.9575C75.2252 23.6753 75.2549 24.3965 75.2684 25.1143L77.1821 25.1105L77.1792 26.7596L75.3781 26.7582C75.4001 27.7416 75.1593 30.4879 75.6047 31.2313C76.0833 31.5173 76.6829 31.4409 77.221 31.4394C77.2146 31.9131 77.2239 32.3882 77.226 32.8625L77.2033 33.0423C77.0178 33.2385 76.7325 33.23 76.4797 33.2363C75.7102 33.2547 74.6475 33.133 74.0896 32.5489C73.0481 31.4586 73.3724 28.2811 73.3816 26.7575L72.1001 26.7582C72.0838 26.2123 72.0902 25.6647 72.0859 25.1188L73.3625 25.1254L73.366 22.9468Z" fill="#764191"/>
<path d="M32.9502 21.7197C33.0487 21.7148 33.1443 21.7134 33.2423 21.7276C33.5485 21.772 33.8502 21.9199 34.0189 22.1887C34.1978 22.474 34.2223 22.8538 34.2468 23.1842C34.3682 24.8195 34.278 26.5208 34.2776 28.1619C34.2772 29.5021 34.4258 31.3196 34.1769 32.6102C34.0986 33.0159 33.8296 33.2099 33.5074 33.4294C33.3847 33.4442 33.2563 33.4612 33.1325 33.4542C32.8561 33.4386 32.5942 33.3154 32.4154 33.1044C32.2386 32.8956 32.2437 32.4764 32.2281 32.2145C32.1157 30.3333 32.2107 28.392 32.2124 26.5052C32.2134 25.433 32.066 23.3805 32.2915 22.4237C32.3721 22.0814 32.6806 21.902 32.9502 21.7197Z" fill="#764191"/>
<path d="M54.6737 25.0876L54.9428 25.0845C55.2619 25.4412 55.1035 26.5713 55.0933 27.0392C54.4191 27.0322 53.7815 27.0053 53.2534 27.4952C52.2624 28.4142 52.5965 31.7821 52.5866 33.1336C52.0554 33.1287 51.0206 33.3227 50.6148 32.985L50.5936 32.6501C50.6033 30.1452 50.5403 27.6425 50.5563 25.138C51.1994 25.158 51.8446 25.1444 52.488 25.1409L52.4654 26.247C52.5847 26.0757 52.7032 25.8923 52.8417 25.7361C53.3293 25.1861 53.9905 25.1364 54.6737 25.0876Z" fill="#764191"/>
<path d="M61.9891 25.1206L64.0097 25.1214L64.0147 33.1378L61.9707 33.1349L61.9891 25.1206Z" fill="#764191"/>
<path d="M30.1281 24.3467C30.4599 24.4079 30.7534 24.5325 30.9468 24.8207C31.245 25.2652 31.253 29.6206 31.1036 30.2422C31.0219 30.582 30.7279 30.7477 30.4492 30.9113C30.1299 30.8921 29.7103 30.8638 29.4971 30.587C29.1799 30.1757 29.2062 25.5467 29.3868 24.9662C29.4917 24.629 29.8385 24.4864 30.1281 24.3467Z" fill="#764191"/>
<path d="M62.866 21.8178C63.4664 21.7472 64.0144 22.1668 64.1021 22.7648C64.1906 23.3629 63.7871 23.9226 63.1924 24.0284C62.7909 24.0996 62.3831 23.9472 62.1275 23.6305C61.8713 23.3139 61.8082 22.883 61.9619 22.506C62.1155 22.129 62.4617 21.8653 62.866 21.8178Z" fill="#764191"/>
</symbol>

<symbol id="logo-icon" viewBox="0 0 80 80">
<path fill-rule="evenodd" clip-rule="evenodd" d="M43.7509 7.84931C44.7118 7.74629 45.8253 7.94691 46.7509 8.20966C48.8452 8.80407 50.5467 10.0771 51.5566 11.8942C52.6058 13.7568 52.8072 15.934 52.1152 17.9362C51.2363 20.4057 49.3521 21.6475 46.998 22.7888L47.0244 29.9909C48.7066 30.4688 50.3436 31.0098 51.8711 31.8347C55.3819 33.7309 57.7832 36.9288 58.79 40.5671C59.8543 44.3822 59.2491 48.4362 57.1074 51.8366C55.143 54.9188 52.0105 57.1951 48.2607 58.0671C43.3623 59.2075 39.2081 57.9725 34.998 55.6403C33.137 57.4944 31.2981 59.3695 29.4834 61.2644C30.2947 63.0476 30.5634 64.9183 30.0254 66.8132C29.4994 68.6656 28.1062 70.2527 26.3242 71.1911C24.3274 72.2441 22.0524 72.436 19.8632 71.8522C17.6906 71.2729 15.8645 70.0188 14.8027 68.1345C13.7576 66.282 13.6691 64.1112 14.3466 62.1335C15.1175 59.8856 16.6879 58.5007 18.8955 57.4733C21.2714 56.6074 23.2354 56.8921 25.5547 57.6706C27.4857 55.7773 29.3039 53.7886 31.2548 51.9118C29.1107 47.9939 28.4155 44.6568 29.5302 40.3395C27.1029 39.2837 24.7627 38.0544 22.3339 36.9968C21.0361 38.2556 19.4498 39.1187 17.5869 39.4108C15.3652 39.7593 13.0224 39.1945 11.1963 37.9792C9.38697 36.7579 8.19663 34.8965 7.90426 32.8327C7.60423 30.8313 8.16924 28.6252 9.54489 27.0456C10.9633 25.4167 13.1649 24.4345 15.3877 24.2175C17.5719 24.0192 19.7515 24.6398 21.4433 25.9421C23.6065 27.6302 24.2308 29.7282 24.4931 32.2292C26.7954 33.5444 29.4321 34.5588 31.831 35.7331C34.9521 32.2952 37.232 31.2106 41.7812 29.904L41.7851 22.7565C40.9708 22.4529 40.1578 22.0834 39.4482 21.5974C37.6534 20.3603 36.4746 18.4967 36.1836 16.4343C35.9145 14.3824 36.5364 12.3146 37.9111 10.6921C39.4134 8.93612 41.4215 8.1366 43.7509 7.84931ZM53.7802 43.405C53.3174 38.4877 48.6811 34.8418 43.4013 35.2419C38.0744 35.6458 34.1181 40.0123 34.5849 44.9724C35.0519 49.9342 39.7637 53.5926 45.0849 53.1267C50.3589 52.6635 54.243 48.3217 53.7802 43.405Z" fill=""/>
<path d="M69.043 31.4638C69.2682 31.4534 69.4868 31.4504 69.7109 31.4806C70.4112 31.5752 71.1012 31.8903 71.4869 32.4632C71.8961 33.071 71.9521 33.8804 72.0081 34.5845C72.2858 38.0692 72.0795 41.6943 72.0786 45.1913C72.0778 48.0472 72.4175 51.9199 71.8483 54.6702C71.6693 55.5346 71.054 55.948 70.3172 56.4157C70.0366 56.4474 69.7429 56.4836 69.4599 56.4685C68.8276 56.4353 68.2287 56.1728 67.8198 55.7232C67.4155 55.2782 67.4272 54.385 67.3914 53.8268C67.1345 49.8184 67.3517 45.6817 67.3556 41.6611C67.3579 39.3764 67.0208 35.0028 67.5363 32.9639C67.7207 32.2345 68.4264 31.8522 69.043 31.4638Z" fill=""/>
<path d="M62.5887 37.0625C63.3475 37.1928 64.0188 37.4585 64.461 38.0725C65.143 39.0198 65.1614 48.3006 64.8198 49.6252C64.6329 50.3493 63.9605 50.7023 63.323 51.0508C62.593 51.0101 61.6333 50.9498 61.1457 50.3599C60.4202 49.4834 60.4803 39.6197 60.8933 38.3827C61.1333 37.664 61.9263 37.3602 62.5887 37.0625Z" fill=""/>
</symbol>

<symbol id="slider-arrow-left" viewBox="0 0 48 48">
<path d="M0 8C0 3.58172 3.58172 0 8 0H40C44.4183 0 48 3.58172 48 8V40C48 44.4183 44.4183 48 40 48H8C3.58172 48 0 44.4183 0 40V8Z" fill=""/>
<path d="M8 0.5H40C44.1421 0.5 47.5 3.85786 47.5 8V40C47.5 44.1421 44.1421 47.5 40 47.5H8C3.85786 47.5 0.5 44.1421 0.5 40V8C0.500001 3.85786 3.85787 0.5 8 0.5Z" stroke="white" stroke-opacity="0.5"/>
<path d="M24.7069 29.293L20.4139 25H29.9999V23H20.4139L24.7069 18.707L23.2929 17.293L16.5859 24L23.2929 30.707L24.7069 29.293Z" fill=""/>
</symbol>
<symbol id="slider-arrow-rigth" viewBox="0 0 48 48">
<path d="M0 8C0 3.58172 3.58172 0 8 0H40C44.4183 0 48 3.58172 48 8V40C48 44.4183 44.4183 48 40 48H8C3.58172 48 0 44.4183 0 40V8Z" fill=""/>
<path d="M8 0.5H40C44.1421 0.5 47.5 3.85786 47.5 8V40C47.5 44.1421 44.1421 47.5 40 47.5H8C3.85786 47.5 0.5 44.1421 0.5 40V8C0.500001 3.85786 3.85787 0.5 8 0.5Z" stroke="white" stroke-opacity="0.5"/>
<path d="M23.293 29.293L24.707 30.707L31.414 24L24.707 17.293L23.293 18.707L27.586 23H18V25H27.586L23.293 29.293Z" fill=""/>
</symbol>

<symbol id="search" viewBox="0 0 24 24">
<path d="M10 18C11.775 17.9996 13.4988 17.4054 14.897 16.312L19.293 20.708L20.707 19.294L16.311 14.898C17.405 13.4997 17.9996 11.7754 18 10C18 5.589 14.411 2 10 2C5.589 2 2 5.589 2 10C2 14.411 5.589 18 10 18ZM10 4C13.309 4 16 6.691 16 10C16 13.309 13.309 16 10 16C6.691 16 4 13.309 4 10C4 6.691 6.691 4 10 4Z" fill=""/>
</symbol>

<symbol id="modal-close" viewBox="0 0 15 15">
<path d="M13.866 13.3946L13.3945 13.866C13.1342 14.1263 12.7121 14.1263 12.4517 13.866L7.03064 8.44484L1.60944 13.8659C1.34914 14.1263 0.927022 14.1263 0.666672 13.8659L0.195262 13.3945C-0.0650875 13.1342 -0.0650875 12.7121 0.195262 12.4517L5.61644 7.03064L0.195262 1.60944C-0.0650875 1.34914 -0.0650875 0.927022 0.195262 0.666672L0.666662 0.195272C0.927012 -0.065078 1.34914 -0.065078 1.60944 0.195272L7.03064 5.61644L12.4517 0.195262C12.7121 -0.0650875 13.1342 -0.0650875 13.3945 0.195262L13.866 0.666662C14.1263 0.927012 14.1263 1.34914 13.866 1.60944L8.44484 7.03064L13.866 12.4517C14.1263 12.7121 14.1263 13.1342 13.866 13.3946Z" fill=""/>
</symbol>

<symbol id="modal-close-icon" viewBox="0 0 32 32">
<path d="M22.8348 22.3639L22.3633 22.8353C22.103 23.0956 21.6809 23.0956 21.4205 22.8353L15.9994 17.4141L10.5782 22.8352C10.3179 23.0956 9.89577 23.0956 9.63542 22.8352L9.16401 22.3638C8.90366 22.1035 8.90366 21.6814 9.16401 21.421L14.5852 15.9999L9.16401 10.5787C8.90366 10.3184 8.90366 9.89626 9.16401 9.63591L9.63541 9.16451C9.89576 8.90416 10.3179 8.90416 10.5782 9.16451L15.9994 14.5857L21.4205 9.1645C21.6809 8.90415 22.103 8.90415 22.3633 9.1645L22.8348 9.6359C23.0951 9.89625 23.0951 10.3184 22.8348 10.5787L17.4136 15.9999L22.8348 21.421C23.0951 21.6814 23.0951 22.1035 22.8348 22.3639Z" fill=""/>
</symbol>

<symbol id="facebook" viewBox="0 0 24 24">
<path d="M22 12.3038C22 6.74719 17.5229 2.24268 12 2.24268C6.47715 2.24268 2 6.74719 2 12.3038C2 17.3255 5.65684 21.4879 10.4375 22.2427V15.2121H7.89844V12.3038H10.4375V10.0872C10.4375 7.56564 11.9305 6.1728 14.2146 6.1728C15.3088 6.1728 16.4531 6.36931 16.4531 6.36931V8.84529H15.1922C13.95 8.84529 13.5625 9.6209 13.5625 10.4166V12.3038H16.3359L15.8926 15.2121H13.5625V22.2427C18.3432 21.4879 22 17.3257 22 12.3038Z" fill=""/>
</symbol>
<symbol id="instagram" viewBox="0 0 24 24"">
<path d="M11.9988 4.62091C14.4032 4.62091 14.6878 4.63159 15.6332 4.67378C16.5123 4.71258 16.9864 4.85994 17.303 4.98311C17.7215 5.14509 18.0235 5.34194 18.3362 5.65465C18.6528 5.97129 18.8458 6.26994 19.0111 6.68838C19.1343 7.00503 19.2816 7.48253 19.3204 8.35822C19.3626 9.3076 19.3733 9.59218 19.3733 11.9932C19.3733 14.3942 19.3626 14.6821 19.3204 15.6281C19.2816 16.5072 19.1343 16.9813 19.0111 17.298C18.8491 17.7164 18.6528 18.0184 18.3396 18.3311C18.0229 18.6478 17.7243 18.8407 17.3064 19.0061C16.9898 19.1292 16.5117 19.2766 15.6366 19.3154C14.6872 19.3576 14.4026 19.3683 12.0016 19.3683C9.60062 19.3683 9.31266 19.3576 8.36666 19.3154C7.48759 19.2766 7.01346 19.1292 6.69682 19.0061C6.27838 18.8441 5.97635 18.6478 5.66308 18.3345C5.34644 18.0179 5.15353 17.7192 4.98817 17.3013C4.865 16.9847 4.71765 16.5066 4.67884 15.6315C4.63666 14.6821 4.62597 14.3975 4.62597 11.9965C4.62597 9.59556 4.63666 9.3076 4.67884 8.3616C4.71765 7.48253 4.865 7.0084 4.98817 6.69176C5.15015 6.27331 5.347 5.97129 5.65971 5.65802C5.97635 5.34137 6.275 5.14846 6.69344 4.98311C7.01009 4.85994 7.48759 4.71258 8.36328 4.67378C9.30872 4.63159 9.59387 4.62091 11.9982 4.62091H11.9988ZM11.9988 3.00056C9.55563 3.00056 9.25023 3.01125 8.29017 3.05343C7.33405 3.09561 6.67657 3.25028 6.1074 3.47187C5.51348 3.70359 5.01067 4.00955 4.5118 4.51236C4.00899 5.01179 3.70303 5.51404 3.47131 6.10459C3.24972 6.6777 3.09505 7.33123 3.05287 8.28736C3.01069 9.25079 3 9.55619 3 11.9994C3 14.4425 3.01069 14.7479 3.05287 15.708C3.09505 16.6641 3.24972 17.3216 3.47131 17.8908C3.70359 18.4847 4.00899 18.9875 4.5118 19.4864C5.01067 19.9852 5.51348 20.2951 6.10402 20.5235C6.67713 20.7451 7.33067 20.8997 8.28679 20.9419C9.24629 20.9841 9.55225 20.9948 11.9954 20.9948C14.4386 20.9948 14.7446 20.9841 15.7041 20.9419C16.6602 20.8997 17.3177 20.7451 17.8868 20.5235C18.4774 20.2951 18.9802 19.9858 19.4791 19.4864C19.9779 18.9869 20.2878 18.4847 20.5162 17.8941C20.7378 17.321 20.8924 16.6675 20.9346 15.7114C20.9768 14.7519 20.9875 14.4459 20.9875 12.0027C20.9875 9.55956 20.9768 9.25417 20.9346 8.29411C20.8924 7.33798 20.7378 6.68051 20.5162 6.11133C20.2946 5.51348 19.9886 5.01123 19.4864 4.5118C18.9875 4.01293 18.4847 3.70303 17.8941 3.47469C17.321 3.25309 16.6675 3.09842 15.7114 3.05624C14.7485 3.01069 14.4425 3 11.9994 3L11.9988 3.00056Z" fill=""/>
<path d="M11.9985 7.37695C9.44683 7.37695 7.37598 9.44724 7.37598 11.9995C7.37598 14.5518 9.44626 16.6221 11.9985 16.6221C14.5508 16.6221 16.6211 14.5518 16.6211 11.9995C16.6211 9.4478 14.5508 7.37695 11.9985 7.37695ZM11.9985 14.9978C10.3428 14.9978 9.00026 13.6553 9.00026 11.9995C9.00026 10.3437 10.3428 9.00124 11.9985 9.00124C13.6543 9.00124 14.9968 10.3437 14.9968 11.9995C14.9968 13.6553 13.6543 14.9978 11.9985 14.9978Z" fill=""/>
<path d="M17.8822 7.19404C17.8822 7.79021 17.3991 8.27333 16.8029 8.27333C16.2068 8.27333 15.7236 7.79021 15.7236 7.19404C15.7236 6.59787 16.2068 6.11475 16.8029 6.11475C17.3991 6.11475 17.8822 6.59787 17.8822 7.19404Z" fill=""/>
</symbol>
<symbol id="youtube" viewBox="0 0 24 24">
<path d="M21.5933 7.20301C21.4794 6.78041 21.2568 6.39501 20.9477 6.08518C20.6386 5.77534 20.2537 5.55187 19.8313 5.43701C18.2653 5.00701 12.0003 5.00001 12.0003 5.00001C12.0003 5.00001 5.73633 4.99301 4.16933 5.40401C3.74725 5.52415 3.36315 5.75078 3.0539 6.06214C2.74464 6.3735 2.52062 6.75913 2.40333 7.18201C1.99033 8.74801 1.98633 11.996 1.98633 11.996C1.98633 11.996 1.98233 15.26 2.39233 16.81C2.62233 17.667 3.29733 18.344 4.15533 18.575C5.73733 19.005 11.9853 19.012 11.9853 19.012C11.9853 19.012 18.2503 19.019 19.8163 18.609C20.2388 18.4943 20.6241 18.2714 20.934 17.9622C21.2439 17.653 21.4677 17.2682 21.5833 16.846C21.9973 15.281 22.0003 12.034 22.0003 12.034C22.0003 12.034 22.0203 8.76901 21.5933 7.20301ZM9.99633 15.005L10.0013 9.00501L15.2083 12.01L9.99633 15.005Z" fill=""/>
</symbol>

<symbol id="slider-arrow" viewBox="0 0 48 48">
<path d="M0 8C0 3.58172 3.58172 0 8 0H40C44.4183 0 48 3.58172 48 8V40C48 44.4183 44.4183 48 40 48H8C3.58172 48 0 44.4183 0 40V8Z" fill="#060307"/>
<path d="M8 0.5H40C44.1421 0.5 47.5 3.85786 47.5 8V40C47.5 44.1421 44.1421 47.5 40 47.5H8C3.85786 47.5 0.5 44.1421 0.5 40V8C0.500001 3.85786 3.85787 0.5 8 0.5Z" stroke="#060307" stroke-opacity="0.15"/>
<path d="M23.293 29.293L24.707 30.707L31.414 24L24.707 17.293L23.293 18.707L27.586 23H18V25H27.586L23.293 29.293Z" fill=""/>
</symbol>

<symbol id="down-arrow-alt" viewBox="0 0 24 24">
<path d="M18.707 12.707L17.293 11.293L13 15.586V6H11V15.586L6.70697 11.293L5.29297 12.707L12 19.414L18.707 12.707Z" fill=""/>
</svg>

<symbol id="chevron-up" viewBox="0 0 24 24">
<path d="M6.29297 14.2929L7.70697 15.7069L12 11.4139L16.293 15.7069L17.707 14.2929L12 8.58594L6.29297 14.2929Z" fill=""/>
</symbol>

<symbol id="chevron-down" viewBox="0 0 24 24">
<path d="M16.293 8.29297L12 12.586L7.70697 8.29297L6.29297 9.70697L12 15.414L17.707 9.70697L16.293 8.29297Z" fill=""/>
</symbol>

<symbol id="error-circle" viewBox="0 0 40 40">
<path d="M19.9223 3.33337C10.7757 3.33337 3.33398 10.81 3.33398 20C3.33398 29.19 10.8107 36.6667 20.0007 36.6667C29.1907 36.6667 36.6673 29.19 36.6673 20C36.6673 10.81 29.1557 3.33337 19.9223 3.33337ZM20.0007 33.3334C12.649 33.3334 6.66732 27.3517 6.66732 20C6.66732 12.6484 12.6123 6.66671 19.9223 6.66671C27.319 6.66671 33.334 12.6484 33.334 20C33.334 27.3517 27.3523 33.3334 20.0007 33.3334Z" fill=""/>
<path d="M18.334 11.6667H21.6673V23.3334H18.334V11.6667ZM18.334 25H21.6673V28.3334H18.334V25Z" fill=""/>
</symbol>

<symbol id="caret-rigth" viewBox="0 0 24 24">
<path d="M9 19L17 12L9 5V19Z" fill=""/>
</symbol>

<symbol id="rigth" viewBox="0 0 8 14">
<path d="M0 14L8 7L0 0V14Z" fill=""/>
</symbol>

<symbol id="rigth-arrow" viewBox="0 0 24 24">
<path d="M5.53601 21.886C5.69777 21.9702 5.8794 22.0087 6.06139 21.9974C6.24338 21.9861 6.41886 21.9255 6.56901 21.822L19.569 12.822C19.7018 12.73 19.8104 12.6071 19.8854 12.464C19.9604 12.3208 19.9995 12.1616 19.9995 12C19.9995 11.8384 19.9604 11.6792 19.8854 11.5361C19.8104 11.3929 19.7018 11.2701 19.569 11.178L6.56901 2.17803C6.41915 2.07348 6.24346 2.01209 6.0611 2.00053C5.87874 1.98898 5.69671 2.02771 5.53486 2.11251C5.373 2.19731 5.23753 2.32491 5.14322 2.48141C5.0489 2.63791 4.99937 2.8173 5.00001 3.00003V21C4.99998 21.1826 5.04991 21.3616 5.14439 21.5178C5.23888 21.674 5.37431 21.8013 5.53601 21.886ZM7.00001 4.90903L17.243 12L7.00001 19.091V4.90903Z" fill=""/>
</symbol>

</defs>
</svg>